# xmcd
#
# Track frame offsets:
#	150
#	10772
#	19935
#	29955
#	40785
#	51322
#	60740
#	75240
#	86325
#	100092
#	110467
#	121550
#	131597
#	143315
#	157627
#	169372
#	179887
#	192720
#	206835
#	217940
#
# Disc length: 3177 seconds
#
# Revision: 3
# Processed by: cddbd v1.4PL0 Copyright (c) Steve Scherf et al.
# Submitted via: CDmax 1.8
#
DISCID=0c0c6714
DTITLE=Chet Atkins - The Essential Chet Atkins
DYEAR=1996
DGENRE=Country
TTITLE0=Mr. Sandman
TTITLE1=The Poor People of Paris
TTITLE2=Boo Boo Stick Beat
TTITLE3=Alley Cat
TTITLE4=Travelin'
TTITLE5=Yakety Axe
TTITLE6=Yesterday
TTITLE7=Blue Angel
TTITLE8=Theme from Zorba the Greek
TTITLE9=Snowbird
TTITLE10=Steeplechase Lane
TTITLE11=Jerry's Breakdown
TTITLE12=Black Mountain Rag
TTITLE13=Fiddlin' Around
TTITLE14=Somewhere My Love
TTITLE15=The Entertainer
TTITLE16=Londonderry Air
TTITLE17=On My Way To Cannaan's Land
TTITLE18=Tennessee Rag/Beaumont Rag
TTITLE19=Chet's Medley
EXTD=
EXTT0=
EXTT1=
EXTT2=
EXTT3=
EXTT4=
EXTT5=
EXTT6=
EXTT7=
EXTT8=
EXTT9=
EXTT10=
EXTT11=
EXTT12=
EXTT13=
EXTT14=
EXTT15=
EXTT16=
EXTT17=
EXTT18=
EXTT19=
PLAYORDER=
